# xmcd CD database file
#
# Track frame offsets:
#	150
#	30947
#	70373
#	91687
#	115950
#	150714
#	177734
#	205547
#	227162
#	245751
#	270217
#	291912
#
# Disc length: 4294 seconds
#
# Revision: 2
# Processed by: cddbd v1.5.1PL2 Copyright (c) Steve Scherf et al.
# Submitted via: CDex 1.51
#
DISCID=a010c40c
DTITLE=Various Artist - Isn't It Romantic - The Finest Jazz Ballads
DYEAR=1998
DGENRE=Jazz
TTITLE0=Chet Baker - Alone Together
TTITLE1=Dexter Gordon - The Days Of Wine And Roses
TTITLE2=Bill Evans - Isn't It Romantic
TTITLE3=Kenny Dorham - My Old Flame
TTITLE4=Sonny Rollins - For All We Know
TTITLE5=Miles Davis Quintet - My Funny Valentine
TTITLE6=Milt Jackson - Feelings
TTITLE7=Art Pepper - Come Rain Or Come Shine
TTITLE8=Gerry Mulligan Quartet - Moonlight In Vermont
TTITLE9=Thelonious Monk - Ruby, My Dear
TTITLE10=Zoot Sims - Embraceable You
TTITLE11=Benny Carter - If I Had You
EXTD=YEAR: 1998
EXTT0=
EXTT1=
EXTT2=
EXTT3=
EXTT4=
EXTT5=
EXTT6=
EXTT7=
EXTT8=
EXTT9=
EXTT10=
EXTT11=
PLAYORDER=
